<mxfile host="app.diagrams.net" agent="Mozilla/5.0 (Macintosh; Intel Mac OS X 10_15_7) AppleWebKit/537.36 (KHTML, like Gecko) Chrome/128.0.0.0 Safari/537.36" version="24.7.7">
  <diagram name="Page-1" id="XWFrt2uUY-Z9jhEEyNuZ">
    <mxGraphModel dx="931" dy="791" grid="0" gridSize="10" guides="1" tooltips="1" connect="1" arrows="1" fold="1" page="1" pageScale="1" pageWidth="827" pageHeight="1169" math="0" shadow="0">
      <root>
        <mxCell id="0" />
        <mxCell id="1" parent="0" />
        <mxCell id="ri5MqQPSYXD5xUSJlvtw-17" value="" style="rounded=0;whiteSpace=wrap;html=1;fillColor=none;dashed=1;align=left;textShadow=0;" vertex="1" parent="1">
          <mxGeometry x="200" y="120" width="450" height="400" as="geometry" />
        </mxCell>
        <mxCell id="ri5MqQPSYXD5xUSJlvtw-19" value="user db" style="shape=cylinder3;whiteSpace=wrap;html=1;boundedLbl=1;backgroundOutline=1;size=15;" vertex="1" parent="1">
          <mxGeometry x="540" y="200" width="60" height="80" as="geometry" />
        </mxCell>
        <mxCell id="ri5MqQPSYXD5xUSJlvtw-18" value="workout db" style="shape=cylinder3;whiteSpace=wrap;html=1;boundedLbl=1;backgroundOutline=1;size=15;" vertex="1" parent="1">
          <mxGeometry x="540" y="370" width="60" height="80" as="geometry" />
        </mxCell>
        <mxCell id="ri5MqQPSYXD5xUSJlvtw-1" value="user db" style="shape=cylinder3;whiteSpace=wrap;html=1;boundedLbl=1;backgroundOutline=1;size=15;" vertex="1" parent="1">
          <mxGeometry x="530" y="190" width="60" height="80" as="geometry" />
        </mxCell>
        <mxCell id="ri5MqQPSYXD5xUSJlvtw-2" value="workout db" style="shape=cylinder3;whiteSpace=wrap;html=1;boundedLbl=1;backgroundOutline=1;size=15;" vertex="1" parent="1">
          <mxGeometry x="530" y="360" width="60" height="80" as="geometry" />
        </mxCell>
        <mxCell id="ri5MqQPSYXD5xUSJlvtw-3" value="authorization-service" style="whiteSpace=wrap;html=1;aspect=fixed;" vertex="1" parent="1">
          <mxGeometry x="360" y="190" width="80" height="80" as="geometry" />
        </mxCell>
        <mxCell id="ri5MqQPSYXD5xUSJlvtw-10" style="edgeStyle=orthogonalEdgeStyle;rounded=0;orthogonalLoop=1;jettySize=auto;html=1;exitX=1;exitY=0.5;exitDx=0;exitDy=0;" edge="1" parent="1" source="ri5MqQPSYXD5xUSJlvtw-4" target="ri5MqQPSYXD5xUSJlvtw-2">
          <mxGeometry relative="1" as="geometry" />
        </mxCell>
        <mxCell id="ri5MqQPSYXD5xUSJlvtw-4" value="workout-tracker-service" style="whiteSpace=wrap;html=1;aspect=fixed;" vertex="1" parent="1">
          <mxGeometry x="360" y="360" width="80" height="80" as="geometry" />
        </mxCell>
        <mxCell id="ri5MqQPSYXD5xUSJlvtw-7" style="edgeStyle=orthogonalEdgeStyle;rounded=0;orthogonalLoop=1;jettySize=auto;html=1;entryX=0;entryY=0.5;entryDx=0;entryDy=0;" edge="1" parent="1" source="ri5MqQPSYXD5xUSJlvtw-5" target="ri5MqQPSYXD5xUSJlvtw-3">
          <mxGeometry relative="1" as="geometry" />
        </mxCell>
        <mxCell id="ri5MqQPSYXD5xUSJlvtw-8" style="edgeStyle=orthogonalEdgeStyle;rounded=0;orthogonalLoop=1;jettySize=auto;html=1;entryX=0;entryY=0.5;entryDx=0;entryDy=0;" edge="1" parent="1" source="ri5MqQPSYXD5xUSJlvtw-5" target="ri5MqQPSYXD5xUSJlvtw-4">
          <mxGeometry relative="1" as="geometry" />
        </mxCell>
        <mxCell id="ri5MqQPSYXD5xUSJlvtw-5" value="grpc-gateway" style="whiteSpace=wrap;html=1;aspect=fixed;" vertex="1" parent="1">
          <mxGeometry x="160" y="270" width="80" height="80" as="geometry" />
        </mxCell>
        <mxCell id="ri5MqQPSYXD5xUSJlvtw-9" style="edgeStyle=orthogonalEdgeStyle;rounded=0;orthogonalLoop=1;jettySize=auto;html=1;entryX=0;entryY=0.5;entryDx=0;entryDy=0;entryPerimeter=0;" edge="1" parent="1" source="ri5MqQPSYXD5xUSJlvtw-3" target="ri5MqQPSYXD5xUSJlvtw-1">
          <mxGeometry relative="1" as="geometry" />
        </mxCell>
        <mxCell id="ri5MqQPSYXD5xUSJlvtw-20" value="cluster" style="text;strokeColor=none;fillColor=none;align=left;verticalAlign=middle;spacingLeft=4;spacingRight=4;overflow=hidden;points=[[0,0.5],[1,0.5]];portConstraint=eastwest;rotatable=0;whiteSpace=wrap;html=1;" vertex="1" parent="1">
          <mxGeometry x="200" y="120" width="130" height="30" as="geometry" />
        </mxCell>
        <mxCell id="ri5MqQPSYXD5xUSJlvtw-22" value="gRPC" style="text;strokeColor=none;fillColor=none;align=left;verticalAlign=middle;spacingLeft=4;spacingRight=4;overflow=hidden;points=[[0,0.5],[1,0.5]];portConstraint=eastwest;rotatable=0;whiteSpace=wrap;html=1;" vertex="1" parent="1">
          <mxGeometry x="250" y="280" width="130" height="30" as="geometry" />
        </mxCell>
        <mxCell id="ri5MqQPSYXD5xUSJlvtw-24" value="" style="endArrow=classic;html=1;rounded=0;" edge="1" parent="1">
          <mxGeometry width="50" height="50" relative="1" as="geometry">
            <mxPoint x="60" y="310" as="sourcePoint" />
            <mxPoint x="160" y="310" as="targetPoint" />
          </mxGeometry>
        </mxCell>
        <mxCell id="ri5MqQPSYXD5xUSJlvtw-25" value="REST" style="text;strokeColor=none;fillColor=none;align=left;verticalAlign=middle;spacingLeft=4;spacingRight=4;overflow=hidden;points=[[0,0.5],[1,0.5]];portConstraint=eastwest;rotatable=0;whiteSpace=wrap;html=1;" vertex="1" parent="1">
          <mxGeometry x="60" y="280" width="80" height="30" as="geometry" />
        </mxCell>
      </root>
    </mxGraphModel>
  </diagram>
</mxfile>
